<mxfile host="app.diagrams.net" modified="2021-04-25T07:02:39.821Z" agent="5.0 (Windows NT 10.0; Win64; x64) AppleWebKit/537.36 (KHTML, like Gecko) Chrome/89.0.4389.128 Safari/537.36" etag="bxMldi3U0HLyE-ZXniv_" version="14.6.0" type="github">
  <diagram id="VjdwUX77j8Nsq5yzh91I" name="Page-1">
    <mxGraphModel dx="1673" dy="896" grid="1" gridSize="10" guides="1" tooltips="1" connect="1" arrows="1" fold="1" page="1" pageScale="1" pageWidth="1000" pageHeight="1000" math="0" shadow="0">
      <root>
        <mxCell id="0" />
        <mxCell id="1" parent="0" />
        <mxCell id="xklSvqNuaBijeDyTu4Pw-1" style="edgeStyle=orthogonalEdgeStyle;rounded=0;orthogonalLoop=1;jettySize=auto;html=1;exitX=0.5;exitY=0.5;exitDx=0;exitDy=0;exitPerimeter=0;entryX=0;entryY=0.5;entryDx=0;entryDy=0;fontSize=14;endArrow=none;endFill=0;" edge="1" parent="1" source="xklSvqNuaBijeDyTu4Pw-3" target="xklSvqNuaBijeDyTu4Pw-23">
          <mxGeometry relative="1" as="geometry" />
        </mxCell>
        <mxCell id="xklSvqNuaBijeDyTu4Pw-2" style="edgeStyle=elbowEdgeStyle;rounded=0;orthogonalLoop=1;jettySize=auto;html=1;exitX=0.75;exitY=0.1;exitDx=0;exitDy=0;exitPerimeter=0;entryX=0.478;entryY=1;entryDx=0;entryDy=0;entryPerimeter=0;fontSize=14;endArrow=none;endFill=0;elbow=vertical;" edge="1" parent="1" source="xklSvqNuaBijeDyTu4Pw-3" target="xklSvqNuaBijeDyTu4Pw-20">
          <mxGeometry relative="1" as="geometry">
            <Array as="points">
              <mxPoint x="330" y="450" />
            </Array>
          </mxGeometry>
        </mxCell>
        <mxCell id="xklSvqNuaBijeDyTu4Pw-3" value="Manager" style="shape=umlActor;verticalLabelPosition=bottom;verticalAlign=top;html=1;outlineConnect=0;" vertex="1" parent="1">
          <mxGeometry x="170" y="440" width="50" height="100" as="geometry" />
        </mxCell>
        <mxCell id="xklSvqNuaBijeDyTu4Pw-6" value="" style="group" vertex="1" connectable="0" parent="1">
          <mxGeometry x="650" y="130" width="200" height="150" as="geometry" />
        </mxCell>
        <mxCell id="xklSvqNuaBijeDyTu4Pw-7" value="《control》&#xa;Controller" style="swimlane;fontStyle=0;childLayout=stackLayout;horizontal=1;startSize=79;horizontalStack=0;resizeParent=1;resizeParentMax=0;resizeLast=0;collapsible=1;marginBottom=0;fontSize=18;labelBorderColor=none;" vertex="1" parent="xklSvqNuaBijeDyTu4Pw-6">
          <mxGeometry x="20" y="18.2" width="180" height="121.8" as="geometry" />
        </mxCell>
        <mxCell id="xklSvqNuaBijeDyTu4Pw-8" value="" style="verticalLabelPosition=bottom;verticalAlign=top;html=1;shape=mxgraph.basic.smiley;fontSize=14;strokeWidth=2;fillColor=#ffffff;" vertex="1" parent="xklSvqNuaBijeDyTu4Pw-6">
          <mxGeometry width="50" height="50" as="geometry" />
        </mxCell>
        <mxCell id="xklSvqNuaBijeDyTu4Pw-9" value="" style="group" vertex="1" connectable="0" parent="1">
          <mxGeometry x="660" y="470" width="200" height="150" as="geometry" />
        </mxCell>
        <mxCell id="xklSvqNuaBijeDyTu4Pw-10" value="《entity》&#xa;Page Maker" style="swimlane;fontStyle=0;childLayout=stackLayout;horizontal=1;startSize=79;horizontalStack=0;resizeParent=1;resizeParentMax=0;resizeLast=0;collapsible=1;marginBottom=0;fontSize=18;labelBorderColor=none;" vertex="1" parent="xklSvqNuaBijeDyTu4Pw-9">
          <mxGeometry x="20" y="21" width="180" height="119" as="geometry" />
        </mxCell>
        <mxCell id="xklSvqNuaBijeDyTu4Pw-11" value="" style="verticalLabelPosition=bottom;verticalAlign=top;html=1;shape=mxgraph.basic.smiley;fontSize=14;strokeWidth=2;fillColor=#ffffff;" vertex="1" parent="xklSvqNuaBijeDyTu4Pw-9">
          <mxGeometry width="50" height="50" as="geometry" />
        </mxCell>
        <mxCell id="xklSvqNuaBijeDyTu4Pw-12" value="" style="group" vertex="1" connectable="0" parent="1">
          <mxGeometry x="960" y="332" width="240" height="150" as="geometry" />
        </mxCell>
        <mxCell id="xklSvqNuaBijeDyTu4Pw-13" value="《boundary》&#xa;Database Connection" style="swimlane;fontStyle=0;childLayout=stackLayout;horizontal=1;startSize=79;horizontalStack=0;resizeParent=1;resizeParentMax=0;resizeLast=0;collapsible=1;marginBottom=0;fontSize=18;labelBorderColor=none;" vertex="1" parent="xklSvqNuaBijeDyTu4Pw-12">
          <mxGeometry x="20" y="20" width="220" height="121.8" as="geometry" />
        </mxCell>
        <mxCell id="xklSvqNuaBijeDyTu4Pw-14" value="" style="verticalLabelPosition=bottom;verticalAlign=top;html=1;shape=mxgraph.basic.smiley;fontSize=14;strokeWidth=2;fillColor=#ffffff;" vertex="1" parent="xklSvqNuaBijeDyTu4Pw-12">
          <mxGeometry width="50" height="50" as="geometry" />
        </mxCell>
        <mxCell id="xklSvqNuaBijeDyTu4Pw-15" value="" style="group" vertex="1" connectable="0" parent="1">
          <mxGeometry x="340" y="140" width="196" height="192" as="geometry" />
        </mxCell>
        <mxCell id="xklSvqNuaBijeDyTu4Pw-16" value="《boundary》&#xa;Checking Request" style="swimlane;fontStyle=0;childLayout=stackLayout;horizontal=1;startSize=79;horizontalStack=0;resizeParent=1;resizeParentMax=0;resizeLast=0;collapsible=1;marginBottom=0;fontSize=18;" vertex="1" parent="xklSvqNuaBijeDyTu4Pw-15">
          <mxGeometry x="16" y="20" width="180" height="110" as="geometry" />
        </mxCell>
        <mxCell id="xklSvqNuaBijeDyTu4Pw-20" value="Guests&#39;s id" style="text;strokeColor=none;fillColor=none;align=left;verticalAlign=top;spacingLeft=4;spacingRight=4;overflow=hidden;rotatable=0;points=[[0,0.5],[1,0.5]];portConstraint=eastwest;fontSize=14;" vertex="1" parent="xklSvqNuaBijeDyTu4Pw-16">
          <mxGeometry y="79" width="180" height="31" as="geometry" />
        </mxCell>
        <mxCell id="xklSvqNuaBijeDyTu4Pw-21" value="" style="shape=note;whiteSpace=wrap;html=1;backgroundOutline=1;darkOpacity=0.05;fontSize=14;strokeWidth=2;fillColor=#ffffff;size=15;" vertex="1" parent="xklSvqNuaBijeDyTu4Pw-15">
          <mxGeometry width="40" height="50" as="geometry" />
        </mxCell>
        <mxCell id="xklSvqNuaBijeDyTu4Pw-22" value="" style="group" vertex="1" connectable="0" parent="1">
          <mxGeometry x="342" y="480" width="194" height="125" as="geometry" />
        </mxCell>
        <mxCell id="xklSvqNuaBijeDyTu4Pw-23" value="《boundary》&#xa;Interface Page" style="swimlane;fontStyle=0;childLayout=stackLayout;horizontal=1;startSize=79;horizontalStack=0;resizeParent=1;resizeParentMax=0;resizeLast=0;collapsible=1;marginBottom=0;fontSize=18;" vertex="1" parent="xklSvqNuaBijeDyTu4Pw-22">
          <mxGeometry x="14" y="15" width="180" height="110" as="geometry" />
        </mxCell>
        <mxCell id="xklSvqNuaBijeDyTu4Pw-24" value="" style="shape=note;whiteSpace=wrap;html=1;backgroundOutline=1;darkOpacity=0.05;fontSize=14;strokeWidth=2;fillColor=#ffffff;size=15;" vertex="1" parent="xklSvqNuaBijeDyTu4Pw-22">
          <mxGeometry width="40" height="50" as="geometry" />
        </mxCell>
        <mxCell id="xklSvqNuaBijeDyTu4Pw-25" style="rounded=0;orthogonalLoop=1;jettySize=auto;html=1;exitX=0.5;exitY=1;exitDx=0;exitDy=0;fontSize=14;endArrow=none;endFill=0;entryX=0.5;entryY=0;entryDx=0;entryDy=0;edgeStyle=elbowEdgeStyle;" edge="1" parent="1" source="xklSvqNuaBijeDyTu4Pw-7" target="xklSvqNuaBijeDyTu4Pw-10">
          <mxGeometry relative="1" as="geometry">
            <mxPoint x="730" y="470" as="targetPoint" />
          </mxGeometry>
        </mxCell>
        <mxCell id="xklSvqNuaBijeDyTu4Pw-26" style="edgeStyle=orthogonalEdgeStyle;rounded=0;orthogonalLoop=1;jettySize=auto;html=1;exitX=0.75;exitY=1;exitDx=0;exitDy=0;entryX=0;entryY=0.5;entryDx=0;entryDy=0;fontSize=14;endArrow=none;endFill=0;" edge="1" parent="1" source="xklSvqNuaBijeDyTu4Pw-7" target="xklSvqNuaBijeDyTu4Pw-13">
          <mxGeometry relative="1" as="geometry">
            <Array as="points">
              <mxPoint x="810" y="270" />
              <mxPoint x="810" y="413" />
            </Array>
          </mxGeometry>
        </mxCell>
        <mxCell id="xklSvqNuaBijeDyTu4Pw-29" style="edgeStyle=orthogonalEdgeStyle;rounded=0;orthogonalLoop=1;jettySize=auto;html=1;exitX=0;exitY=0.75;exitDx=0;exitDy=0;entryX=1;entryY=0.25;entryDx=0;entryDy=0;fontSize=14;endArrow=none;endFill=0;" edge="1" parent="1" source="xklSvqNuaBijeDyTu4Pw-7" target="xklSvqNuaBijeDyTu4Pw-23">
          <mxGeometry relative="1" as="geometry" />
        </mxCell>
        <mxCell id="xklSvqNuaBijeDyTu4Pw-30" style="edgeStyle=orthogonalEdgeStyle;rounded=0;orthogonalLoop=1;jettySize=auto;html=1;exitX=1;exitY=0.5;exitDx=0;exitDy=0;entryX=0;entryY=0.5;entryDx=0;entryDy=0;fontSize=14;endArrow=none;endFill=0;" edge="1" parent="1" source="xklSvqNuaBijeDyTu4Pw-23" target="xklSvqNuaBijeDyTu4Pw-10">
          <mxGeometry relative="1" as="geometry" />
        </mxCell>
        <mxCell id="xklSvqNuaBijeDyTu4Pw-31" value="◀ prepares&amp;nbsp;" style="edgeLabel;html=1;align=center;verticalAlign=middle;resizable=0;points=[];fontSize=15;" vertex="1" connectable="0" parent="xklSvqNuaBijeDyTu4Pw-30">
          <mxGeometry x="-0.2125" y="4" relative="1" as="geometry">
            <mxPoint x="8" y="14" as="offset" />
          </mxGeometry>
        </mxCell>
        <mxCell id="xklSvqNuaBijeDyTu4Pw-32" style="edgeStyle=elbowEdgeStyle;rounded=0;orthogonalLoop=1;jettySize=auto;html=1;exitX=1;exitY=0.25;exitDx=0;exitDy=0;entryX=0;entryY=0.5;entryDx=0;entryDy=0;fontSize=14;endArrow=none;endFill=0;elbow=vertical;" edge="1" parent="1" source="xklSvqNuaBijeDyTu4Pw-16" target="xklSvqNuaBijeDyTu4Pw-7">
          <mxGeometry relative="1" as="geometry">
            <Array as="points" />
          </mxGeometry>
        </mxCell>
        <mxCell id="xklSvqNuaBijeDyTu4Pw-33" value="&lt;font style=&quot;font-size: 15px;&quot;&gt;receives ▶&lt;/font&gt;" style="edgeLabel;html=1;align=center;verticalAlign=middle;resizable=0;points=[];fontSize=15;" vertex="1" connectable="0" parent="xklSvqNuaBijeDyTu4Pw-32">
          <mxGeometry x="-0.3393" relative="1" as="geometry">
            <mxPoint x="20" y="-18" as="offset" />
          </mxGeometry>
        </mxCell>
        <mxCell id="xklSvqNuaBijeDyTu4Pw-34" style="edgeStyle=elbowEdgeStyle;rounded=0;orthogonalLoop=1;jettySize=auto;html=1;exitX=1;exitY=0.5;exitDx=0;exitDy=0;entryX=0.5;entryY=1;entryDx=0;entryDy=0;fontSize=14;endArrow=none;endFill=0;elbow=vertical;" edge="1" parent="1" source="xklSvqNuaBijeDyTu4Pw-10" target="xklSvqNuaBijeDyTu4Pw-13">
          <mxGeometry relative="1" as="geometry">
            <Array as="points">
              <mxPoint x="990" y="540" />
            </Array>
          </mxGeometry>
        </mxCell>
        <mxCell id="xklSvqNuaBijeDyTu4Pw-37" value="&lt;font style=&quot;font-size: 15px;&quot;&gt;convey reqeuests&amp;nbsp;&lt;/font&gt;&lt;span style=&quot;font-size: 15px; background-color: rgb(255, 255, 255);&quot;&gt;▶&lt;/span&gt;" style="text;html=1;align=center;verticalAlign=middle;resizable=0;points=[];autosize=1;strokeColor=none;fontSize=15;" vertex="1" parent="1">
          <mxGeometry x="820" y="390" width="150" height="20" as="geometry" />
        </mxCell>
        <mxCell id="xklSvqNuaBijeDyTu4Pw-38" value="posts&amp;nbsp;&lt;br style=&quot;font-size: 16px;&quot;&gt;▼" style="text;html=1;align=center;verticalAlign=middle;resizable=0;points=[];autosize=1;strokeColor=none;fontSize=16;rotation=0;" vertex="1" parent="1">
          <mxGeometry x="550" y="380" width="60" height="40" as="geometry" />
        </mxCell>
        <mxCell id="xklSvqNuaBijeDyTu4Pw-39" value="&lt;font style=&quot;font-size: 15px;&quot;&gt;convey reqeuests&amp;nbsp;&lt;/font&gt;&lt;span style=&quot;font-size: 15px; background-color: rgb(255, 255, 255);&quot;&gt;▶&lt;/span&gt;" style="text;html=1;align=center;verticalAlign=middle;resizable=0;points=[];autosize=1;strokeColor=none;fontSize=15;rotation=90;" vertex="1" parent="1">
          <mxGeometry x="675" y="370" width="150" height="20" as="geometry" />
        </mxCell>
        <mxCell id="xklSvqNuaBijeDyTu4Pw-41" value="◀ provides data" style="text;html=1;align=center;verticalAlign=middle;resizable=0;points=[];autosize=1;strokeColor=none;fontSize=15;" vertex="1" parent="1">
          <mxGeometry x="920" y="550" width="120" height="20" as="geometry" />
        </mxCell>
        <mxCell id="xklSvqNuaBijeDyTu4Pw-49" style="rounded=0;orthogonalLoop=1;jettySize=auto;html=1;exitX=0.5;exitY=0.5;exitDx=0;exitDy=0;exitPerimeter=0;entryX=0.5;entryY=0;entryDx=0;entryDy=0;edgeStyle=elbowEdgeStyle;endArrow=none;endFill=0;" edge="1" parent="1" source="xklSvqNuaBijeDyTu4Pw-47" target="xklSvqNuaBijeDyTu4Pw-13">
          <mxGeometry relative="1" as="geometry">
            <Array as="points">
              <mxPoint x="1090" y="290" />
            </Array>
          </mxGeometry>
        </mxCell>
        <mxCell id="xklSvqNuaBijeDyTu4Pw-47" value="Database&lt;br&gt;" style="shape=umlActor;verticalLabelPosition=bottom;verticalAlign=top;html=1;outlineConnect=0;" vertex="1" parent="1">
          <mxGeometry x="1160" y="187.25000000000003" width="50" height="97.5" as="geometry" />
        </mxCell>
      </root>
    </mxGraphModel>
  </diagram>
</mxfile>
